<?xml version="1.0" encoding="utf-8"?>
<!-- Generator: Adobe Illustrator 16.0.0, SVG Export Plug-In . SVG Version: 6.00 Build 0)  -->
<!DOCTYPE svg PUBLIC "-//W3C//DTD SVG 1.1//EN" "http://www.w3.org/Graphics/SVG/1.1/DTD/svg11.dtd">
<svg version="1.1" id="Layer_1" xmlns="http://www.w3.org/2000/svg" xmlns:xlink="http://www.w3.org/1999/xlink" x="0px" y="0px"
	 width="423.061px" height="488.936px" viewBox="174.07 139.459 423.061 488.936"
	 enable-background="new 174.07 139.459 423.061 488.936" xml:space="preserve">
<g id="text4981" transform="scale(1.1477838,0.87124422)">
</g>
<g id="text5027" transform="scale(1.1477838,0.87124422)">
</g>
<linearGradient id="SVGID_1_" gradientUnits="userSpaceOnUse" x1="90.0698" y1="424.6085" x2="511.9365" y2="424.6085" gradientTransform="matrix(1 0 0 -1 84 775.0002)">
	<stop  offset="0" style="stop-color:#0095EB"/>
	<stop  offset="1" style="stop-color:#7DDAFF"/>
</linearGradient>
<path fill="none" stroke="url(#SVGID_1_)" stroke-width="20.6922" stroke-linecap="round" stroke-miterlimit="10" d="
	M578.412,297.019c4.68,16.995,7.179,34.891,7.179,53.371c0,110.781-89.805,200.588-200.585,200.588
	c-110.784,0-200.59-89.808-200.59-200.588c0-110.779,89.806-200.585,200.59-200.585c67.087,0,126.483,32.936,162.897,83.519"/>
<linearGradient id="SVGID_2_" gradientUnits="userSpaceOnUse" x1="107.6689" y1="248.4445" x2="494.3389" y2="248.4445" gradientTransform="matrix(1 0 0 -1 84 775.0002)">
	<stop  offset="0" style="stop-color:#0095EB"/>
	<stop  offset="1" style="stop-color:#7DDAFF"/>
</linearGradient>
<path fill="none" stroke="url(#SVGID_2_)" stroke-width="20.6922" stroke-linecap="round" stroke-miterlimit="10" d="
	M567.993,435.063c0,101.061-81.929,182.986-182.987,182.986c-101.063,0-182.991-81.927-182.991-182.986"/>
<linearGradient id="SVGID_3_" gradientUnits="userSpaceOnUse" x1="159.9966" y1="431.1671" x2="513.1309" y2="431.1671" gradientTransform="matrix(1 0 0 -1 84 775.0002)">
	<stop  offset="0" style="stop-color:#0095EB"/>
	<stop  offset="1" style="stop-color:#7DDAFF"/>
</linearGradient>
<polyline fill="none" stroke="url(#SVGID_3_)" stroke-width="20.6922" stroke-linecap="round" stroke-miterlimit="10" points="
	254.343,311.781 336.317,436.842 586.785,246.214 "/>
</svg>
