<?xml version="1.0" encoding="utf-8"?>
<!-- Generator: Adobe Illustrator 16.0.0, SVG Export Plug-In . SVG Version: 6.00 Build 0)  -->
<!DOCTYPE svg PUBLIC "-//W3C//DTD SVG 1.1//EN" "http://www.w3.org/Graphics/SVG/1.1/DTD/svg11.dtd">
<svg version="1.1" id="Layer_1" xmlns="http://www.w3.org/2000/svg" xmlns:xlink="http://www.w3.org/1999/xlink" x="0px" y="0px"
	 width="664.046px" height="424.966px" viewBox="825.236 -228.813 664.046 424.966"
	 enable-background="new 825.236 -228.813 664.046 424.966" xml:space="preserve">
<g id="text4981" transform="scale(1.1477838,0.87124422)">
</g>
<g id="text5027" transform="scale(1.1477838,0.87124422)">
</g>
<linearGradient id="SVGID_1_" gradientUnits="userSpaceOnUse" x1="1049.9443" y1="-129.4774" x2="1123.9443" y2="-129.4774">
	<stop  offset="0" style="stop-color:#0095EB"/>
	<stop  offset="1" style="stop-color:#7DDAFF"/>
</linearGradient>
<path fill="url(#SVGID_1_)" d="M1086.941-30.141c20.404,0,37.003-16.598,37.003-36.997c0-15.631-9.784-28.959-23.531-34.37
	c0-5.398,0-10.808,0-16.211c0-32.686,0-65.371,0-98.056c0-17.385-26.944-17.385-26.944,0c0,32.685,0,65.37,0,98.056
	c0,5.404,0,10.808,0,16.211c-13.733,5.416-23.524,18.739-23.524,34.37C1049.944-46.739,1066.543-30.141,1086.941-30.141z
	 M1086.941-82.569c8.505,0,15.432,6.92,15.432,15.431c0,8.512-6.92,15.432-15.432,15.432s-15.432-6.92-15.432-15.432
	C1071.51-75.649,1078.43-82.569,1086.941-82.569z"/>
<linearGradient id="SVGID_2_" gradientUnits="userSpaceOnUse" x1="1290.6094" y1="59.5231" x2="1489.2822" y2="59.5231">
	<stop  offset="0" style="stop-color:#0095EB"/>
	<stop  offset="1" style="stop-color:#7DDAFF"/>
</linearGradient>
<path fill="url(#SVGID_2_)" d="M1452.285,22.523c-15.631,0-28.953,9.791-34.369,23.524c-5.404,0-10.808,0-16.212,0
	c-32.686,0-65.37,0-98.056,0c-17.385,0-17.385,26.944,0,26.944c32.686,0,65.37,0,98.056,0c5.404,0,10.813,0,16.212,0
	c5.41,13.747,18.738,23.531,34.369,23.531c20.398,0,36.997-16.599,36.997-37.003C1489.282,39.122,1472.684,22.523,1452.285,22.523z
	 M1452.285,44.089c8.512,0,15.432,6.92,15.432,15.432s-6.92,15.432-15.432,15.432s-15.431-6.927-15.431-15.432
	C1436.854,51.008,1443.773,44.089,1452.285,44.089z"/>
<linearGradient id="SVGID_3_" gradientUnits="userSpaceOnUse" x1="922.0322" y1="32.8331" x2="1251.8594" y2="32.8331">
	<stop  offset="0" style="stop-color:#0095EB"/>
	<stop  offset="1" style="stop-color:#7DDAFF"/>
</linearGradient>
<path fill="url(#SVGID_3_)" d="M1238.811,19.361c-101.244,0-202.494,0-303.744,0c-17.379,0-17.379,26.944,0,26.944
	c101.256,0,202.5,0,303.744,0C1256.208,46.305,1256.208,19.361,1238.811,19.361z"/>
<linearGradient id="SVGID_4_" gradientUnits="userSpaceOnUse" x1="974.7813" y1="108.2931" x2="1199.1035" y2="108.2931">
	<stop  offset="0" style="stop-color:#0095EB"/>
	<stop  offset="1" style="stop-color:#7DDAFF"/>
</linearGradient>
<path fill="url(#SVGID_4_)" d="M987.818,94.821c-17.384,0-17.384,26.944,0,26.944c66.089,0,132.177,0,198.252,0
	c17.378,0,17.378-26.944,0-26.944C1119.995,94.821,1053.907,94.821,987.818,94.821z"/>
<g>
	<linearGradient id="SVGID_5_" gradientUnits="userSpaceOnUse" x1="825.2363" y1="56.0558" x2="1319.3838" y2="56.0558">
		<stop  offset="0" style="stop-color:#0095EB"/>
		<stop  offset="1" style="stop-color:#7DDAFF"/>
	</linearGradient>
	<path fill="url(#SVGID_5_)" d="M1285.858,85.03l-12.659,45.814v2.19c0,13.086-25.422,20.355-40.572,23.531
		c-31.101,6.502-71.492,7.251-99.191,7.251c-10.071,0-19.556-0.1-28.005-0.199c-6.889-0.082-13.142-0.15-18.477-0.15
		c-5.329,0-11.569,0.081-18.483,0.15c-8.448,0.105-17.921,0.199-27.999,0.199c-126.135,0-139.757-21.521-139.757-30.788v-2.19
		L857.621-25.093c0.506-18.739,8.406-26.614,49.789-26.614c6.546,0,13.342,0.175,20.256,0.35c7.443,0.187,15.025,0.38,22.601,0.38
		h86.954c-1.678-5.123-2.813-10.489-2.813-16.167c0-5.679,1.136-11.045,2.813-16.168h-86.973c-7.295,0-14.602-0.181-21.784-0.375
		c-7.188-0.181-14.259-0.355-21.072-0.355c-24.579,0-82.155,0-82.155,61.052v2.196l43.18,156.237
		c3.033,60.722,121.2,60.709,172.037,60.709c10.215,0,19.818-0.112,28.38-0.206c13.534-0.144,22.651-0.144,36.204,0
		c8.567,0.106,18.171,0.206,28.386,0.206c29.122,0,71.779-0.824,105.8-7.943c42.693-8.937,64.958-26.67,66.225-52.772l13.937-50.407
		H1285.858z"/>
	<linearGradient id="SVGID_6_" gradientUnits="userSpaceOnUse" x1="1136.6807" y1="-25.6918" x2="1348.6406" y2="-25.6918">
		<stop  offset="0" style="stop-color:#0095EB"/>
		<stop  offset="1" style="stop-color:#7DDAFF"/>
	</linearGradient>
	<path fill="url(#SVGID_6_)" d="M1223.641-50.97c7.588,0,15.17-0.187,22.608-0.381c6.907-0.174,13.709-0.349,20.255-0.349
		c41.377,0,49.271,7.875,49.782,26.614l-15.954,57.739h33.532l14.776-53.446v-2.196c0-61.046-57.563-61.046-82.155-61.046
		c-6.814,0-13.878,0.175-21.073,0.356c-7.17,0.187-14.471,0.375-21.79,0.375h-86.941c1.69,5.123,2.814,10.489,2.814,16.167
		c0,5.679-1.136,11.045-2.814,16.168H1223.641z"/>
</g>
</svg>
