<?xml version="1.0" encoding="utf-8"?>
<!-- Generator: Adobe Illustrator 16.0.0, SVG Export Plug-In . SVG Version: 6.00 Build 0)  -->
<!DOCTYPE svg PUBLIC "-//W3C//DTD SVG 1.1//EN" "http://www.w3.org/Graphics/SVG/1.1/DTD/svg11.dtd">
<svg version="1.1" id="Layer_1" xmlns="http://www.w3.org/2000/svg" xmlns:xlink="http://www.w3.org/1999/xlink" x="0px" y="0px"
	 width="523.402px" height="424.965px" viewBox="33.159 0 523.402 424.965" enable-background="new 33.159 0 523.402 424.965"
	 xml:space="preserve">
<g id="text4981" transform="scale(1.1477838,0.87124422)">
</g>
<g id="text5027" transform="scale(1.1477838,0.87124422)">
</g>
<linearGradient id="SVGID_1_" gradientUnits="userSpaceOnUse" x1="-146.1343" y1="620.6294" x2="-72.1343" y2="620.6294" gradientTransform="matrix(1 0 0 -1 404 719.9658)">
	<stop  offset="0" style="stop-color:#0095EB"/>
	<stop  offset="1" style="stop-color:#7DDAFF"/>
</linearGradient>
<path fill="url(#SVGID_1_)" d="M294.862,198.673c20.404,0,37.004-16.598,37.004-36.997c0-15.631-9.785-28.959-23.531-34.37
	c0-5.398,0-10.808,0-16.211c0-32.687,0-65.371,0-98.056c0-17.385-26.945-17.385-26.945,0c0,32.685,0,65.37,0,98.056
	c0,5.404,0,10.808,0,16.211c-13.732,5.416-23.523,18.739-23.523,34.37C257.866,182.075,274.463,198.673,294.862,198.673z
	 M294.862,146.245c8.506,0,15.432,6.92,15.432,15.431c0,8.512-6.92,15.432-15.432,15.432s-15.432-6.92-15.432-15.432
	C279.43,153.165,286.35,146.245,294.862,146.245z"/>
<linearGradient id="SVGID_2_" gradientUnits="userSpaceOnUse" x1="-274.0474" y1="458.3188" x2="55.7798" y2="458.3188" gradientTransform="matrix(1 0 0 -1 404 719.9658)">
	<stop  offset="0" style="stop-color:#0095EB"/>
	<stop  offset="1" style="stop-color:#7DDAFF"/>
</linearGradient>
<path fill="url(#SVGID_2_)" d="M446.731,248.174c-101.242,0-202.492,0-303.742,0c-17.381,0-17.381,26.945,0,26.945
	c101.256,0,202.5,0,303.742,0C464.129,275.12,464.129,248.174,446.731,248.174z"/>
<linearGradient id="SVGID_3_" gradientUnits="userSpaceOnUse" x1="-221.3003" y1="382.8589" x2="3.0249" y2="382.8589" gradientTransform="matrix(1 0 0 -1 404 719.9658)">
	<stop  offset="0" style="stop-color:#0095EB"/>
	<stop  offset="1" style="stop-color:#7DDAFF"/>
</linearGradient>
<path fill="url(#SVGID_3_)" d="M195.739,323.635c-17.385,0-17.385,26.943,0,26.943c66.09,0,132.178,0,198.252,0
	c17.379,0,17.379-26.943,0-26.943C327.917,323.635,261.829,323.635,195.739,323.635z"/>
<g>
	
		<linearGradient id="SVGID_4_" gradientUnits="userSpaceOnUse" x1="-370.8413" y1="435.0972" x2="123.3071" y2="435.0972" gradientTransform="matrix(1 0 0 -1 404 719.9658)">
		<stop  offset="0" style="stop-color:#0095EB"/>
		<stop  offset="1" style="stop-color:#7DDAFF"/>
	</linearGradient>
	<path fill="url(#SVGID_4_)" d="M493.78,313.844l-12.66,45.813v2.19c0,13.086-25.422,20.355-40.572,23.531
		c-31.1,6.502-71.492,7.25-99.191,7.25c-10.07,0-19.555-0.1-28.004-0.198c-6.889-0.082-13.143-0.15-18.477-0.15
		c-5.33,0-11.57,0.081-18.484,0.15c-8.447,0.104-17.92,0.198-27.998,0.198c-126.135,0-139.758-21.521-139.758-30.787v-2.19
		L65.542,203.721c0.506-18.739,8.406-26.614,49.789-26.614c6.547,0,13.342,0.175,20.256,0.35c7.443,0.187,15.025,0.38,22.602,0.38
		h86.953c-1.678-5.123-2.813-10.489-2.813-16.167c0-5.679,1.137-11.045,2.813-16.168h-86.973c-7.295,0-14.602-0.181-21.783-0.375
		c-7.188-0.181-14.26-0.355-21.072-0.355c-24.58,0-82.154,0-82.154,61.052v2.196l43.18,156.236
		c3.033,60.723,121.199,60.709,172.037,60.709c10.215,0,19.816-0.111,28.379-0.205c13.535-0.145,22.652-0.145,36.205,0
		c8.566,0.105,18.17,0.205,28.385,0.205c29.123,0,71.779-0.823,105.801-7.942c42.693-8.937,64.957-26.67,66.225-52.772
		l13.938-50.406H493.78z"/>
	
		<linearGradient id="SVGID_5_" gradientUnits="userSpaceOnUse" x1="-59.3979" y1="516.8423" x2="152.561" y2="516.8423" gradientTransform="matrix(1 0 0 -1 404 719.9658)">
		<stop  offset="0" style="stop-color:#0095EB"/>
		<stop  offset="1" style="stop-color:#7DDAFF"/>
	</linearGradient>
	<path fill="url(#SVGID_5_)" d="M431.561,177.844c7.588,0,15.17-0.188,22.609-0.381c6.906-0.174,13.709-0.349,20.254-0.349
		c41.377,0,49.271,7.875,49.783,26.614l-15.955,57.739h33.533l14.775-53.446v-2.196c0-61.046-57.563-61.046-82.154-61.046
		c-6.814,0-13.879,0.175-21.074,0.356c-7.17,0.187-14.471,0.375-21.789,0.375h-86.941c1.689,5.123,2.814,10.489,2.814,16.167
		c0,5.679-1.137,11.045-2.814,16.168L431.561,177.844L431.561,177.844z"/>
</g>
</svg>
