<?xml version="1.0" encoding="utf-8"?>
<!-- Generator: Adobe Illustrator 16.0.0, SVG Export Plug-In . SVG Version: 6.00 Build 0)  -->
<!DOCTYPE svg PUBLIC "-//W3C//DTD SVG 1.1//EN" "http://www.w3.org/Graphics/SVG/1.1/DTD/svg11.dtd">
<svg version="1.1" id="Layer_1" xmlns="http://www.w3.org/2000/svg" xmlns:xlink="http://www.w3.org/1999/xlink" x="0px" y="0px"
	 width="463.999px" height="428.628px" viewBox="-569.38 -101.275 463.999 428.628"
	 enable-background="new -569.38 -101.275 463.999 428.628" xml:space="preserve">
<g id="text4981" transform="scale(1.1477838,0.87124422)">
</g>
<g id="text5027" transform="scale(1.1477838,0.87124422)">
</g>
<linearGradient id="SVGID_1_" gradientUnits="userSpaceOnUse" x1="-554.6777" y1="-90.2749" x2="-143.9355" y2="-90.2749">
	<stop  offset="0" style="stop-color:#0095EB"/>
	<stop  offset="1" style="stop-color:#7DDAFF"/>
</linearGradient>
<line fill="none" stroke="url(#SVGID_1_)" stroke-width="22" stroke-linecap="round" stroke-miterlimit="10" x1="-543.678" y1="-90.275" x2="-154.936" y2="-90.275"/>
<linearGradient id="SVGID_2_" gradientUnits="userSpaceOnUse" x1="-569.3799" y1="89.7832" x2="-126.3799" y2="89.7832">
	<stop  offset="0" style="stop-color:#0095EB"/>
	<stop  offset="1" style="stop-color:#7DDAFF"/>
</linearGradient>
<path fill="none" stroke="url(#SVGID_2_)" stroke-width="22" stroke-linecap="round" stroke-miterlimit="10" d="M-183.615-81.29
	c28.929,36.05,46.235,81.827,46.235,131.646c0,116.256-94.244,210.5-210.5,210.5s-210.5-94.244-210.5-210.5
	c0-49.762,17.267-95.492,46.137-131.523"/>
<linearGradient id="SVGID_3_" gradientUnits="userSpaceOnUse" x1="-544.9927" y1="165.9287" x2="-108.3809" y2="165.9287">
	<stop  offset="0" style="stop-color:#0095EB"/>
	<stop  offset="1" style="stop-color:#7DDAFF"/>
</linearGradient>
<path fill="none" stroke="url(#SVGID_3_)" stroke-width="22" stroke-linecap="round" stroke-miterlimit="10" d="M-135.26,20.504
	c10.233,24.759,15.879,51.895,15.879,80.35c0,116.256-94.244,210.5-210.5,210.5c-98.428,0-181.078-67.556-204.112-158.83"/>
</svg>
