<?xml version="1.0" encoding="utf-8"?>
<!-- Generator: Adobe Illustrator 16.0.0, SVG Export Plug-In . SVG Version: 6.00 Build 0)  -->
<!DOCTYPE svg PUBLIC "-//W3C//DTD SVG 1.1//EN" "http://www.w3.org/Graphics/SVG/1.1/DTD/svg11.dtd">
<svg version="1.1" id="Layer_1" xmlns="http://www.w3.org/2000/svg" xmlns:xlink="http://www.w3.org/1999/xlink" x="0px" y="0px"
	 width="702.839px" height="805.323px" viewBox="467.571 -101.32 702.839 805.323"
	 enable-background="new 467.571 -101.32 702.839 805.323" xml:space="preserve">
<g id="text4981" transform="scale(1.1477838,0.87124422)">
</g>
<g id="text5027" transform="scale(1.1477838,0.87124422)">
</g>
<linearGradient id="SVGID_1_" gradientUnits="userSpaceOnUse" x1="467.5713" y1="301.3409" x2="1170.4102" y2="301.3409">
	<stop  offset="0" style="stop-color:#0095EB"/>
	<stop  offset="1" style="stop-color:#7DDAFF"/>
</linearGradient>
<path fill="none" stroke="url(#SVGID_1_)" stroke-width="26.7796" stroke-linecap="round" stroke-miterlimit="10" d="
	M1154.391,492.298l-114.66-66.301l114.66-64.739c4.68-3.12,0.779-9.36-3.9-7.021l-118.56,67.08l-85.801-49.92v-138.06l86.58-50.7
	l117.78,66.3c5.46,3.12,8.58-3.9,3.9-7.02l-113.881-63.96l113.101-65.52c4.68-3.12,0.78-9.36-3.9-7.02l-113.88,66.3V40.678
	c0-6.24-7.8-6.24-7.8,0v135.72l-85.8,49.92l-119.34-68.64v-98.28l117.779-73.32c5.46-3.9,1.561-10.14-4.68-6.24l-113.1,70.2v-134.16
	c0-5.46-7.801-4.68-7.801,0v134.94l-113.879-70.98c-6.24-3.9-10.141,3.12-3.9,7.02l117.779,73.32v97.5l-119.34,68.64l-85.8-49.14
	v-136.5c0-5.46-7.8-5.46-7.8,0v131.04l-114.66-66.3c-5.46-3.12-9.359,3.9-3.9,7.02l113.881,66.3l-113.881,63.96
	c-3.899,2.34-0.779,9.36,3.9,7.02l117.78-66.3l86.579,50.7v138.06l-85.799,49.14l-118.561-66.3c-4.68-3.12-8.58,4.68-3.9,7.02
	l114.66,64.74l-114.66,65.521c-5.459,3.12-1.56,10.14,3.9,7.02l114.66-67.08v131.04c0,6.24,7.8,6.24,7.8,0V428.338l86.58-50.7
	l118.56,68.64v105.3l-117.779,73.32c-4.68,2.34-0.78,9.36,3.9,6.24l113.879-70.98v126.36c0,5.46,7.801,5.46,7.801,0v-126.36
	l113.88,70.98c4.68,2.34,8.58-3.9,3.899-6.24l-117.779-73.32v-105.3l118.56-68.64l86.58,50.7v134.939c0,6.24,7.8,6.24,7.8,0v-131.04
	l114.66,67.08C1155.95,502.438,1159.851,495.418,1154.391,492.298z M938.33,370.617l-119.34,69.42l-119.34-68.64v-138.06
	l119.34-69.42l119.34,68.64V370.617z"/>
</svg>
