<?xml version="1.0" encoding="utf-8"?>
<!-- Generator: Adobe Illustrator 16.0.0, SVG Export Plug-In . SVG Version: 6.00 Build 0)  -->
<!DOCTYPE svg PUBLIC "-//W3C//DTD SVG 1.1//EN" "http://www.w3.org/Graphics/SVG/1.1/DTD/svg11.dtd">
<svg version="1.1" id="Layer_1" xmlns="http://www.w3.org/2000/svg" xmlns:xlink="http://www.w3.org/1999/xlink" x="0px" y="0px"
	 width="690.112px" height="690.113px" viewBox="371.183 -350.377 690.112 690.113"
	 enable-background="new 371.183 -350.377 690.112 690.113" xml:space="preserve">
<g id="text4981" transform="scale(1.1477838,0.87124422)">
</g>
<g id="text5027" transform="scale(1.1477838,0.87124422)">
</g>
<g>
	<linearGradient id="SVGID_1_" gradientUnits="userSpaceOnUse" x1="471.8184" y1="-8.5912" x2="964.6582" y2="-8.5912">
		<stop  offset="0" style="stop-color:#0095EB"/>
		<stop  offset="1" style="stop-color:#7DDAFF"/>
	</linearGradient>
	<path fill="none" stroke="url(#SVGID_1_)" stroke-width="26.7796" stroke-linecap="round" stroke-miterlimit="10" d="
		M949.455,123.05l-79.044-45.706l79.044-44.63c3.226-2.151,0.537-6.453-2.689-4.84l-81.731,46.243l-59.148-34.413v-95.176
		l59.686-34.951l81.194,45.706c3.765,2.151,5.915-2.688,2.689-4.839l-78.507-44.093l77.969-45.168
		c3.227-2.151,0.538-6.452-2.688-4.839l-78.507,45.706v-90.336c0-4.302-5.376-4.302-5.376,0v93.562l-59.149,34.414l-82.27-47.319
		v-67.752l81.193-50.545c3.766-2.688,1.076-6.99-3.226-4.302l-77.968,48.394v-92.487c0-3.764-5.378-3.226-5.378,0v93.024
		l-78.506-48.932c-4.301-2.688-6.99,2.151-2.688,4.839l81.194,50.545v67.214l-82.27,47.319l-59.148-33.876v-94.1
		c0-3.764-5.377-3.764-5.377,0v90.336l-79.045-45.706c-3.764-2.151-6.451,2.688-2.688,4.839l78.507,45.706l-78.507,44.093
		c-2.688,1.613-0.537,6.453,2.688,4.839l81.195-45.706l59.686,34.952v95.175l-59.147,33.876l-81.733-45.705
		c-3.226-2.151-5.914,3.226-2.688,4.839l79.044,44.63l-79.044,45.169c-3.763,2.15-1.075,6.989,2.688,4.839l79.045-46.243v90.336
		c0,4.302,5.377,4.302,5.377,0V78.957l59.686-34.951l81.732,47.318v72.591l-81.194,50.546c-3.226,1.612-0.538,6.452,2.688,4.302
		l78.506-48.933v87.11c0,3.764,5.378,3.764,5.378,0v-87.11l78.506,48.933c3.227,1.612,5.915-2.689,2.688-4.302l-81.193-50.546
		V91.324l81.732-47.318l59.687,34.951v93.024c0,4.302,5.376,4.302,5.376,0V81.646l79.044,46.243
		C950.53,130.039,953.22,125.2,949.455,123.05z M800.508,39.166l-82.271,47.856l-82.27-47.318v-95.176l82.27-47.856l82.271,47.319
		V39.166z"/>
	<linearGradient id="SVGID_2_" gradientUnits="userSpaceOnUse" x1="371.1826" y1="-5.3212" x2="1061.2949" y2="-5.3212">
		<stop  offset="0" style="stop-color:#0095EB"/>
		<stop  offset="1" style="stop-color:#7DDAFF"/>
	</linearGradient>
	
		<circle fill="none" stroke="url(#SVGID_2_)" stroke-width="26.7796" stroke-linecap="round" stroke-miterlimit="10" cx="716.239" cy="-5.321" r="331.667"/>
</g>
</svg>
