<?xml version="1.0" encoding="utf-8"?>
<!-- Generator: Adobe Illustrator 16.0.0, SVG Export Plug-In . SVG Version: 6.00 Build 0)  -->
<!DOCTYPE svg PUBLIC "-//W3C//DTD SVG 1.1//EN" "http://www.w3.org/Graphics/SVG/1.1/DTD/svg11.dtd">
<svg version="1.1" id="Layer_1" xmlns="http://www.w3.org/2000/svg" xmlns:xlink="http://www.w3.org/1999/xlink" x="0px" y="0px"
	 width="474.779px" height="544.959px" viewBox="153.99 117.978 474.779 544.959"
	 enable-background="new 153.99 117.978 474.779 544.959" xml:space="preserve">
<g id="text4981" transform="scale(1.1477838,0.87124422)">
</g>
<g id="text5027" transform="scale(1.1477838,0.87124422)">
</g>
<linearGradient id="SVGID_1_" gradientUnits="userSpaceOnUse" x1="173.9463" y1="547.0861" x2="610.5713" y2="547.0861">
	<stop  offset="0" style="stop-color:#0095EB"/>
	<stop  offset="1" style="stop-color:#7DDAFF"/>
</linearGradient>
<path fill="none" stroke="url(#SVGID_1_)" stroke-width="26.7796" stroke-linecap="round" stroke-miterlimit="10" d="
	M597.182,444.625c0,113.174-91.747,204.922-204.921,204.922c-113.178,0-204.925-91.748-204.925-204.922"/>
<path fill="none" stroke="#000000" stroke-width="23.1724" stroke-linecap="round" stroke-miterlimit="10" d="M336.024,484.103"/>
<linearGradient id="SVGID_2_" gradientUnits="userSpaceOnUse" x1="153.9902" y1="355.3668" x2="628.7695" y2="355.3668">
	<stop  offset="0" style="stop-color:#0095EB"/>
	<stop  offset="1" style="stop-color:#7DDAFF"/>
</linearGradient>
<circle fill="none" stroke="url(#SVGID_2_)" stroke-width="26.7796" stroke-linecap="round" stroke-miterlimit="10" cx="391.38" cy="355.367" r="224"/>
<g>
	<linearGradient id="SVGID_3_" gradientUnits="userSpaceOnUse" x1="292.4927" y1="354.4835" x2="480.4795" y2="354.4835">
		<stop  offset="0" style="stop-color:#0095EB"/>
		<stop  offset="1" style="stop-color:#7DDAFF"/>
	</linearGradient>
	<linearGradient id="SVGID_4_" gradientUnits="userSpaceOnUse" x1="291.8906" y1="354.4835" x2="481.082" y2="354.4835">
		<stop  offset="0" style="stop-color:#0095EB"/>
		<stop  offset="1" style="stop-color:#7DDAFF"/>
	</linearGradient>
	<path fill="url(#SVGID_3_)" stroke="url(#SVGID_4_)" stroke-width="1.2043" stroke-miterlimit="10" d="M390.1,314.979
		c-4.581,0-12.953,6.633-25.113,19.898c-9.082,10.349-15.677,18.124-19.783,23.339l-10.661,13.502
		c-4.582,8.689-8.172,15.914-10.779,21.675l-6.396,13.742c-1.657,3.396-3.101,5.788-4.323,7.169c-1.227,1.379-2.886,2.07-4.976,2.07
		c-2.094,0-4.105-0.375-6.042-1.123c-1.937-0.751-3.61-1.721-5.034-2.903c-3.003-2.525-4.5-5.288-4.5-8.29
		c0-1.187,0.867-3.517,2.605-6.991l4.5-9.594c1.424-2.844,3.083-6.475,4.976-10.898l6.635-16.227
		c9.316-23.298,13.975-38.34,13.975-45.133c0-3.63-1.182-6.316-3.553-8.056l-2.368-1.657c-0.792-0.55-1.184-1.521-1.184-2.903
		c0-1.378,0.533-2.704,1.599-3.968c1.066-1.262,2.467-2.369,4.204-3.316c3.556-1.815,7.125-2.723,10.721-2.723
		c3.591,0,6.415,0.395,8.468,1.184c2.052,0.789,3.832,1.855,5.331,3.198c3.002,2.764,4.501,5.645,4.501,8.647
		s-0.395,6.022-1.182,9.062c-0.792,3.042-1.777,6.12-2.962,9.238c-1.187,3.123-2.449,6.143-3.792,9.062
		c-3.158,6.794-5.114,10.958-5.863,12.499c-0.752,1.542-0.968,2.115-0.652,1.718c14.451-18.717,23.137-29.771,26.062-33.167
		c6.079-7.028,10.816-11.846,14.213-14.453c6.238-4.659,12.142-6.987,17.708-6.987c5.567,0,10.01,1.737,13.327,5.209
		c3.315,3.477,4.973,8.056,4.973,13.743c0,4.973-1.262,10.819-3.789,17.53c-2.526,6.714-4.227,11.413-5.091,14.096l17.411-22.981
		l9.711-11.607c5.844-6.555,10.978-10.856,15.403-12.913c4.42-2.052,8.03-3.078,10.836-3.078c2.802,0,5.567,0.513,8.293,1.538
		c2.726,1.026,5.034,2.49,6.931,4.383c4.026,3.869,6.039,9.003,6.039,15.4c0,6.16-1.419,12.476-4.265,18.953
		c-2.842,6.475-5.331,11.785-7.462,15.931c-2.134,4.146-4.185,8.313-6.16,12.497c-5.765,12.556-8.646,21.875-8.646,27.957
		c0,4.264,1.734,6.398,5.21,6.398c3.318,0,6.337-0.713,9.062-2.134c2.727-1.423,4.48-2.131,5.275-2.131
		c1.654,0,2.484,0.827,2.484,2.485c0,7.031-3.597,12.912-10.776,17.651c-4.818,3.238-9.223,4.854-13.211,4.854
		s-7.206-0.473-9.655-1.42c-2.449-0.948-4.656-2.446-6.634-4.5c-4.419-4.582-6.633-10.307-6.633-17.179
		c0-6.87,0.87-13.185,2.606-18.953c1.739-5.764,3.792-11.35,6.16-16.761c2.367-5.406,4.756-10.385,7.165-14.926
		s4.244-8.151,5.512-10.836c2.524-5.527,3.786-9.596,3.786-12.202c0-3.081-1.618-4.619-4.853-4.619
		c-4.265,0-11.928,7.067-22.98,21.201c-8.371,10.978-14.177,18.877-17.413,23.693l-8.176,11.845
		c-4.579,8.689-8.094,15.914-10.54,21.675l-6.042,13.742c-1.501,3.396-2.804,5.788-3.91,7.169c-1.106,1.379-2.645,2.07-4.619,2.07
		c-1.973,0-3.89-0.316-5.745-0.947c-1.856-0.632-3.455-1.461-4.798-2.486c-3.077-2.291-4.619-4.718-4.619-7.285
		c0-2.565,0.848-6.081,2.548-10.542c1.694-4.46,3.807-9.457,6.336-14.985l16.584-35.063c5.924-13.03,8.883-21.302,8.883-24.817
		C394.955,316.736,393.336,314.979,390.1,314.979z M401.826,348.382c0.076,0,0.116-0.038,0.116-0.118l0.121-0.236
		C401.902,348.186,401.826,348.304,401.826,348.382z"/>
</g>
</svg>
