<?xml version="1.0" encoding="utf-8"?>
<!-- Generator: Adobe Illustrator 16.0.0, SVG Export Plug-In . SVG Version: 6.00 Build 0)  -->
<!DOCTYPE svg PUBLIC "-//W3C//DTD SVG 1.1//EN" "http://www.w3.org/Graphics/SVG/1.1/DTD/svg11.dtd">
<svg version="1.1" id="Layer_1" xmlns="http://www.w3.org/2000/svg" xmlns:xlink="http://www.w3.org/1999/xlink" x="0px" y="0px"
	 width="664.045px" height="280.193px" viewBox="0.001 144.772 664.045 280.193"
	 enable-background="new 0.001 144.772 664.045 280.193" xml:space="preserve">
<g id="text4981" transform="scale(1.1477838,0.87124422)">
</g>
<g id="text5027" transform="scale(1.1477838,0.87124422)">
</g>
<linearGradient id="SVGID_1_" gradientUnits="userSpaceOnUse" x1="61.373" y1="431.6294" x2="260.0464" y2="431.6294" gradientTransform="matrix(1 0 0 -1 404 719.9658)">
	<stop  offset="0" style="stop-color:#0095EB"/>
	<stop  offset="1" style="stop-color:#7DDAFF"/>
</linearGradient>
<path fill="url(#SVGID_1_)" d="M627.048,251.336c-15.631,0-28.953,9.791-34.369,23.524c-5.404,0-10.807,0-16.211,0
	c-32.688,0-65.371,0-98.057,0c-17.385,0-17.385,26.944,0,26.944c32.686,0,65.369,0,98.057,0c5.404,0,10.813,0,16.211,0
	c5.41,13.746,18.738,23.531,34.369,23.531c20.398,0,36.998-16.6,36.998-37.004C664.046,267.936,647.447,251.336,627.048,251.336z
	 M627.048,272.903c8.512,0,15.432,6.92,15.432,15.432c0,8.513-6.92,15.433-15.432,15.433s-15.432-6.927-15.432-15.433
	C611.617,279.822,618.537,272.903,627.048,272.903z"/>
<linearGradient id="SVGID_2_" gradientUnits="userSpaceOnUse" x1="-307.2041" y1="458.3188" x2="22.6226" y2="458.3188" gradientTransform="matrix(1 0 0 -1 404 719.9658)">
	<stop  offset="0" style="stop-color:#0095EB"/>
	<stop  offset="1" style="stop-color:#7DDAFF"/>
</linearGradient>
<path fill="url(#SVGID_2_)" d="M413.574,248.174c-101.242,0-202.492,0-303.742,0c-17.381,0-17.381,26.945,0,26.945
	c101.256,0,202.5,0,303.742,0C430.972,275.12,430.972,248.174,413.574,248.174z"/>
<linearGradient id="SVGID_3_" gradientUnits="userSpaceOnUse" x1="-254.457" y1="382.8589" x2="-30.1323" y2="382.8589" gradientTransform="matrix(1 0 0 -1 404 719.9658)">
	<stop  offset="0" style="stop-color:#0095EB"/>
	<stop  offset="1" style="stop-color:#7DDAFF"/>
</linearGradient>
<path fill="url(#SVGID_3_)" d="M162.582,323.635c-17.385,0-17.385,26.943,0,26.943c66.09,0,132.178,0,198.252,0
	c17.379,0,17.379-26.943,0-26.943C294.759,323.635,228.671,323.635,162.582,323.635z"/>
<g>
	
		<linearGradient id="SVGID_4_" gradientUnits="userSpaceOnUse" x1="-403.9985" y1="435.0972" x2="90.1499" y2="435.0972" gradientTransform="matrix(1 0 0 -1 404 719.9658)">
		<stop  offset="0" style="stop-color:#0095EB"/>
		<stop  offset="1" style="stop-color:#7DDAFF"/>
	</linearGradient>
	<path fill="url(#SVGID_4_)" d="M460.623,313.844l-12.66,45.813v2.19c0,13.086-25.422,20.355-40.572,23.531
		c-31.1,6.502-71.492,7.25-99.191,7.25c-10.07,0-19.555-0.1-28.004-0.198c-6.889-0.082-13.143-0.15-18.477-0.15
		c-5.33,0-11.57,0.081-18.484,0.15c-8.447,0.104-17.92,0.198-27.998,0.198c-126.135,0-139.758-21.521-139.758-30.787v-2.19
		L32.384,203.721c0.506-18.739,8.406-26.614,49.789-26.614c6.547,0,13.342,0.175,20.256,0.35c7.443,0.187,15.025,0.38,22.602,0.38
		h86.953c-1.678-5.123-2.813-10.489-2.813-16.167c0-5.679,1.137-11.045,2.813-16.168h-86.973c-7.295,0-14.602-0.181-21.783-0.375
		c-7.188-0.181-14.26-0.355-21.072-0.355c-24.58,0-82.154,0-82.154,61.052v2.196l43.18,156.236
		c3.033,60.723,121.199,60.709,172.037,60.709c10.215,0,19.816-0.111,28.379-0.205c13.535-0.145,22.652-0.145,36.205,0
		c8.566,0.105,18.17,0.205,28.385,0.205c29.123,0,71.779-0.823,105.801-7.942c42.693-8.937,64.957-26.67,66.225-52.772
		l13.938-50.406H460.623z"/>
	
		<linearGradient id="SVGID_5_" gradientUnits="userSpaceOnUse" x1="-92.5552" y1="516.8423" x2="119.4038" y2="516.8423" gradientTransform="matrix(1 0 0 -1 404 719.9658)">
		<stop  offset="0" style="stop-color:#0095EB"/>
		<stop  offset="1" style="stop-color:#7DDAFF"/>
	</linearGradient>
	<path fill="url(#SVGID_5_)" d="M398.404,177.844c7.588,0,15.17-0.188,22.609-0.381c6.906-0.174,13.709-0.349,20.254-0.349
		c41.377,0,49.271,7.875,49.783,26.614l-15.955,57.739h33.533l14.775-53.446v-2.196c0-61.046-57.563-61.046-82.154-61.046
		c-6.814,0-13.879,0.175-21.074,0.356c-7.17,0.187-14.471,0.375-21.789,0.375h-86.941c1.689,5.123,2.814,10.489,2.814,16.167
		c0,5.679-1.137,11.045-2.814,16.168L398.404,177.844L398.404,177.844z"/>
</g>
</svg>
