<?xml version="1.0" encoding="utf-8"?>
<!-- Generator: Adobe Illustrator 16.0.0, SVG Export Plug-In . SVG Version: 6.00 Build 0)  -->
<!DOCTYPE svg PUBLIC "-//W3C//DTD SVG 1.1//EN" "http://www.w3.org/Graphics/SVG/1.1/DTD/svg11.dtd">
<svg version="1.1" id="Layer_1" xmlns="http://www.w3.org/2000/svg" xmlns:xlink="http://www.w3.org/1999/xlink" x="0px" y="0px"
	 width="245.982px" height="247.396px" viewBox="581.941 -118.326 245.982 247.396"
	 enable-background="new 581.941 -118.326 245.982 247.396" xml:space="preserve">
<g id="text4981" transform="scale(1.1477838,0.87124422)">
</g>
<g id="text5027" transform="scale(1.1477838,0.87124422)">
</g>
<linearGradient id="SVGID_1_" gradientUnits="userSpaceOnUse" x1="581.9414" y1="5.3727" x2="827.9238" y2="5.3727">
	<stop  offset="0" style="stop-color:#0095EB"/>
	<stop  offset="1" style="stop-color:#7DDAFF"/>
</linearGradient>
<path fill="url(#SVGID_1_)" d="M814.534-35.331c7.395,0,13.39-5.995,13.39-13.39v-55.861c0-3.788-1.579-7.201-4.107-9.636
	c-2.436-2.528-5.849-4.107-9.636-4.107h-55.861c-7.395,0-13.39,5.995-13.39,13.39s5.995,13.39,13.39,13.39h24.243l-77.63,77.63
	l-77.63-77.63h24.243c7.395,0,13.39-5.995,13.39-13.39s-5.995-13.39-13.39-13.39h-55.861c-3.787,0-7.2,1.579-9.636,4.107
	c-2.528,2.436-4.107,5.849-4.107,9.636v55.861c0,7.395,5.995,13.39,13.39,13.39s13.39-5.995,13.39-13.39v-23.537l77.276,77.277
	l-77.276,77.277v-22.83c0-7.395-5.995-13.39-13.39-13.39s-13.39,5.995-13.39,13.39v55.861c0,3.788,1.579,7.201,4.107,9.636
	c2.436,2.528,5.849,4.107,9.636,4.107h55.861c7.395,0,13.39-5.995,13.39-13.39s-5.995-13.39-13.39-13.39h-24.95l78.337-78.337
	l78.337,78.337h-24.95c-0.01,0-0.02,0.001-0.029,0.001h-0.138h-0.66h-0.664h-0.66h-0.66h-0.66h-0.66h-0.664h-0.66h-0.66h-0.664
	h-0.66h-0.66h-0.66h-0.66h-0.664h-0.66h-0.66h-0.664h-0.66h-0.66v26.777h0.66h0.66h0.664h0.66h0.66h0.664h0.66h0.66h0.66h0.66h0.664
	h0.66h0.66h0.664h0.66h0.66h0.66h0.66h0.664h0.66h0.157c0.003,0,0.007,0,0.01,0h55.861c0.003,0,0.007,0,0.01,0h0.157h0.66h0.664
	h0.66h0.66h0.66h0.66h0.664h0.66h0.66h0.664h0.66h0.66h0.66h0.66h0.664h0.66h0.66h0.664h0.66h0.66v-0.352h0.141h0.211v-13.353
	c0-0.013,0.002-0.025,0.002-0.039V59.466c0-0.013-0.002-0.026-0.002-0.039v-13.35h-0.211h-0.215h-0.215h-0.215h-0.215h-0.211h-0.219
	h-0.211h-0.215h-0.215h-0.215h-0.215h-0.211h-0.215h-0.215h-0.215h-0.215h-0.215h-0.215h-0.211h-0.215h-0.215h-0.215h-0.215h-0.211
	h-0.219h-0.211h-0.215h-0.215h-0.215h-0.215h-0.211h-0.215h-0.215h-0.215h-0.215h-0.215h-0.215h-0.211h-0.215h-0.215h-0.215h-0.215
	h-0.215h-0.215h-0.211h-0.215h-0.215h-0.215h-0.215H817h-0.219h-0.211h-0.215h-0.215h-0.215h-0.215H815.5h-0.215h-0.215h-0.215
	h-0.215h-0.077c-0.01,0-0.02-0.001-0.029-0.001s-0.02,0.001-0.029,0.001h-0.079h-0.215H814h-0.215h-0.215h-0.215h-0.215h-0.211
	h-0.219H812.5h-0.215h-0.215h-0.215h-0.215h-0.211h-0.215H811h-0.215h-0.215h-0.215h-0.215h-0.211h-0.215H809.5h-0.215h-0.215
	h-0.211h-0.219h-0.211h-0.215H808h-0.215h-0.215h-0.211h-0.215h-0.215h-0.215H806.5h-0.215h-0.215h-0.211h-0.215h-0.215h-0.215H805
	h-0.215h-0.215h-0.211h-0.215h-0.215h-0.215H803.5h-0.211h-0.219h-0.211h-0.215h-0.215h-0.215H802h-0.211h-0.215h-0.215h-0.215
	v13.388v22.83L723.868,5.019l77.276-77.277v23.537C801.145-41.326,807.14-35.331,814.534-35.331z"/>
</svg>
