<?xml version="1.0" encoding="utf-8"?>
<!-- Generator: Adobe Illustrator 16.0.0, SVG Export Plug-In . SVG Version: 6.00 Build 0)  -->
<!DOCTYPE svg PUBLIC "-//W3C//DTD SVG 1.1//EN" "http://www.w3.org/Graphics/SVG/1.1/DTD/svg11.dtd">
<svg version="1.1" id="Layer_1" xmlns="http://www.w3.org/2000/svg" xmlns:xlink="http://www.w3.org/1999/xlink" x="0px" y="0px"
	 width="470.999px" height="543.588px" viewBox="155.242 98.271 470.999 543.588"
	 enable-background="new 155.242 98.271 470.999 543.588" xml:space="preserve">
<g id="text4981" transform="scale(1.1477838,0.87124422)">
</g>
<linearGradient id="path5206_1_" gradientUnits="userSpaceOnUse" x1="755.9004" y1="7.4253" x2="285.38" y2="28.9337" gradientTransform="matrix(1 0 0 1 -198 355)">
	<stop  offset="0" style="stop-color:#40B8F4"/>
	<stop  offset="0.4042" style="stop-color:#1FA6EF"/>
	<stop  offset="0.7694" style="stop-color:#089AEC"/>
	<stop  offset="1" style="stop-color:#0095EB"/>
</linearGradient>
<path id="path5206" fill="url(#path5206_1_)" d="M363.465,98.271c-5.009,0-9.059,4.06-9.059,9.058c0,2.459,0.991,4.803,2.758,6.51
	l21.795,21.795c-124.454,6.191-223.717,108.922-223.717,234.899c0,16.238,1.628,32.126,4.775,47.445
	c3.15,15.321,7.768,30.146,13.729,44.227c5.962,14.083,13.27,27.493,21.726,40.018c8.456,12.525,18.079,24.202,28.731,34.852
	c10.648,10.65,22.323,20.273,34.849,28.729c12.524,8.458,25.933,15.764,40.019,21.726c4.528,2.123,9.922,0.178,12.045-4.353
	c2.123-4.526,0.178-9.924-4.369-12.047c-0.176-0.089-0.39-0.193-0.6-0.265c-13.005-5.503-25.372-12.242-36.939-20.063
	c-11.57-7.817-22.326-16.7-32.162-26.537c-9.837-9.836-18.752-20.626-26.57-32.196c-7.82-11.568-14.525-23.899-20.028-36.901
	c-5.501-13.003-9.767-26.644-12.665-40.797c-2.903-14.152-4.424-28.817-4.424-43.836c0-115.477,89.833-209.531,203.479-216.713
	l-19.672,19.672c-3.605,3.468-3.715,9.199-0.247,12.808c3.449,3.609,9.199,3.725,12.81,0.266c0.069-0.088,0.159-0.177,0.248-0.266
	l36.23-36.231c3.538-3.529,3.572-9.26,0.034-12.808c-0.02-0.018-0.034-0.026-0.034-0.026l-36.23-36.205
	C368.276,99.271,365.904,98.271,363.465,98.271z M477.993,152.794c-4.987,0.389-8.704,4.75-8.316,9.739
	c0.249,3.44,2.461,6.421,5.661,7.704c13.005,5.502,25.371,12.216,36.939,20.026c11.569,7.819,22.326,16.735,32.162,26.572
	c9.837,9.836,18.752,20.592,26.569,32.162c7.82,11.57,14.525,23.936,20.028,36.938c5.501,13.002,9.767,26.643,12.665,40.795
	c2.903,14.153,4.424,28.783,4.424,43.803c0,115.803-90.347,209.988-204.436,216.711l20.629-20.627
	c3.571-3.503,3.643-9.235,0.142-12.808c-1.771-1.807-4.212-2.797-6.725-2.727c-2.352,0.071-4.581,1.044-6.229,2.727l-36.229,36.23
	c-3.538,3.538-3.538,9.27,0,12.808l36.229,36.23c3.472,3.608,9.199,3.715,12.812,0.266c3.605-3.468,3.715-9.199,0.247-12.809
	c-0.071-0.089-0.16-0.178-0.247-0.266l-20.878-20.875c124.015-6.651,222.8-109.188,222.8-234.863c0-16.241-1.628-32.11-4.775-47.448
	c-3.149-15.329-7.768-30.135-13.729-44.227c-5.962-14.091-13.271-27.456-21.727-39.981s-18.079-24.201-28.73-34.851
	c-10.648-10.65-22.323-20.3-34.85-28.766c-12.523-8.465-25.933-15.762-40.019-21.724c-1.096-0.479-2.298-0.734-3.501-0.743
	C478.594,152.776,478.311,152.776,477.993,152.794z M390.742,225.609c-79.926,0-144.924,64.987-144.924,144.924
	c0,79.926,64.999,144.923,144.924,144.923s144.924-64.997,144.924-144.923C535.666,290.596,470.668,225.609,390.742,225.609z
	 M390.742,243.725c70.145,0,126.808,56.664,126.808,126.808c0,70.143-56.663,126.808-126.808,126.808
	c-70.146,0-126.808-56.665-126.808-126.808C263.935,300.389,320.598,243.725,390.742,243.725z M384.336,279.461v20.981
	c-5.694,0.699-10.86,2.07-15.46,4.104c-4.6,2.034-8.524,4.644-11.78,7.819c-3.188,3.175-5.661,6.925-7.433,11.251
	c-1.661,4.326-2.511,9.084-2.511,14.294c0,5.662,0.972,10.642,2.9,14.966c2.016,4.328,4.846,8.121,8.524,11.43
	c3.77,3.307,8.315,6.19,13.587,8.666c5.362,2.416,11.396,4.566,18.081,6.406c5.024,1.661,9.289,3.396,12.809,5.166
	c3.609,1.768,6.492,3.713,8.67,5.802c2.266,2.087,3.874,4.351,4.882,6.756s1.521,5.063,1.521,7.926c0,3.435-0.619,6.548-1.875,9.341
	c-1.257,2.727-3.112,5.061-5.556,7.043c-2.335,1.911-5.255,3.413-8.774,4.492c-3.434,1.026-7.378,1.521-11.816,1.521
	c-3.186,0-6.369-0.408-9.554-1.24c-3.186-0.812-6.086-2.298-8.67-4.386c-2.582-2.087-4.671-4.936-6.262-8.493
	c-1.59-3.555-2.371-8.029-2.371-13.443h-22.113c0,7.184,1.133,13.355,3.397,18.506c2.264,5.095,5.254,9.34,9.022,12.701
	c3.855,3.361,8.243,5.942,13.196,7.713c4.953,1.787,10.048,2.972,15.318,3.538v18.293h17.48v-18.293
	c6.279-0.638,11.923-1.91,16.946-3.821c5.022-1.91,9.288-4.458,12.809-7.643c3.521-3.186,6.244-6.936,8.175-11.252
	c1.927-4.388,2.864-9.287,2.864-14.753c0-5.59-0.92-10.544-2.76-14.789c-1.84-4.265-4.566-8.016-8.172-11.252
	c-3.611-3.237-8.033-6.078-13.304-8.492c-5.273-2.477-11.359-4.715-18.224-6.688c-5.358-1.715-9.874-3.456-13.554-5.236
	c-3.605-1.84-6.543-3.767-8.809-5.803c-2.265-2.033-3.873-4.271-4.883-6.685c-0.92-2.477-1.379-5.229-1.379-8.28
	c0-3.308,0.459-6.324,1.379-9.058c1.01-2.733,2.458-5.06,4.389-6.97c2.018-1.972,4.491-3.485,7.43-4.564
	c2.938-1.079,6.388-1.627,10.402-1.627c3.856,0,7.288,0.734,10.295,2.194c3.009,1.459,5.52,3.485,7.537,6.085
	c2.018,2.609,3.521,5.714,4.528,9.27c1.096,3.556,1.627,7.448,1.627,11.71h22.009c0-12.905-3.256-23.059-9.694-30.499
	c-6.369-7.5-15.394-12.029-27.103-13.622V279.46L384.336,279.461L384.336,279.461z"/>
<g id="text5027" transform="scale(1.1477838,0.87124422)">
</g>
</svg>
