<?xml version="1.0" encoding="utf-8"?>
<!-- Generator: Adobe Illustrator 16.0.0, SVG Export Plug-In . SVG Version: 6.00 Build 0)  -->
<!DOCTYPE svg PUBLIC "-//W3C//DTD SVG 1.1//EN" "http://www.w3.org/Graphics/SVG/1.1/DTD/svg11.dtd">
<svg version="1.1" id="Layer_1" xmlns="http://www.w3.org/2000/svg" xmlns:xlink="http://www.w3.org/1999/xlink" x="0px" y="0px"
	 width="527.49px" height="527.49px" viewBox="114.01 122.595 527.49 527.49" enable-background="new 114.01 122.595 527.49 527.49"
	 xml:space="preserve">
<linearGradient id="SVGID_1_" gradientUnits="userSpaceOnUse" x1="861.8008" y1="-146.876" x2="457.7105" y2="192.1959" gradientTransform="matrix(1 0 0 -1 -282 409)">
	<stop  offset="0" style="stop-color:#40B8F4"/>
	<stop  offset="0.4042" style="stop-color:#1FA6EF"/>
	<stop  offset="0.7694" style="stop-color:#089AEC"/>
	<stop  offset="1" style="stop-color:#0095EB"/>
</linearGradient>
<circle fill="none" stroke="url(#SVGID_1_)" stroke-width="23" stroke-miterlimit="10" cx="377.755" cy="386.34" r="252.245"/>
<linearGradient id="SVGID_2_" gradientUnits="userSpaceOnUse" x1="517.793" y1="57.4336" x2="320.8854" y2="44.4236" gradientTransform="matrix(1 0 0 -1 -282 409)">
	<stop  offset="0" style="stop-color:#40B8F4"/>
	<stop  offset="0.4042" style="stop-color:#1FA6EF"/>
	<stop  offset="0.7694" style="stop-color:#089AEC"/>
	<stop  offset="1" style="stop-color:#0095EB"/>
</linearGradient>
<path fill="url(#SVGID_2_)" d="M424.133,240.751l-104.598-21.485c-5.942-1.221-11.767,2.61-12.988,8.562
	c-1.222,5.951,2.611,11.766,8.563,12.988l75.38,15.483c-18.684,6.771-48.531,19.566-77.178,40.265
	c-61.716,44.596-87.455,104.172-74.433,172.29c1.008,5.27,5.618,8.937,10.793,8.937c0.685,0,1.38-0.064,2.077-0.197
	c5.967-1.142,9.88-6.902,8.739-12.87c-11.43-59.78,10.52-110.243,65.237-149.983c31.142-22.618,64.704-35.347,80.3-40.503
	L389.66,353.91c-1.222,5.951,2.611,11.766,8.563,12.988c0.746,0.153,1.49,0.227,2.226,0.227c5.111,0,9.693-3.584,10.764-8.789
	l21.484-104.597C433.917,247.789,430.084,241.974,424.133,240.751z"/>
<linearGradient id="SVGID_3_" gradientUnits="userSpaceOnUse" x1="598.3174" y1="-24.9824" x2="401.4322" y2="-38.2988" gradientTransform="matrix(1 0 0 -1 -282 409)">
	<stop  offset="0" style="stop-color:#40B8F4"/>
	<stop  offset="0.4042" style="stop-color:#1FA6EF"/>
	<stop  offset="0.7694" style="stop-color:#089AEC"/>
	<stop  offset="1" style="stop-color:#0095EB"/>
</linearGradient>
<path fill="url(#SVGID_3_)" d="M509.678,303.482c-1.141-5.967-6.9-9.88-12.87-8.739c-5.967,1.141-9.88,6.903-8.738,12.87
	c11.429,59.781-10.521,110.243-65.238,149.984c-31.14,22.617-64.701,35.348-80.297,40.503l16.366-79.673
	c1.222-5.951-2.611-11.767-8.563-12.989c-5.948-1.221-11.767,2.609-12.989,8.563l-21.485,104.596
	c-0.152,0.744-0.228,1.486-0.228,2.217c-0.002,1.682,0.396,3.3,1.101,4.761c1.438,2.984,4.191,5.294,7.688,6.013
	c0.001,0,0.003,0,0.004,0.001l104.596,21.483c0.745,0.152,1.489,0.227,2.225,0.227c5.112,0,9.694-3.585,10.764-8.789
	c1.223-5.95-2.61-11.766-8.563-12.988l-75.379-15.481c18.684-6.771,48.529-19.566,77.175-40.266
	C496.961,431.176,522.699,371.599,509.678,303.482z"/>
</svg>
